# xmcd
#
# Track frame offsets:
#	150
#	12807
#	25815
#	37122
#	54237
#	68141
#	80126
#	93720
#	109662
#	127128
#	141151
#	154284
#	170329
#	186692
#	201305
#	212893
#	228083
#	240510
#	251733
#	266914
#
# Disc length: 3759 seconds
#
# Revision: 0
# Processed by: cddbd v1.5.2PL0 Copyright (c) Steve Scherf et al.
# Submitted via: EasyCDDAExtractor 2010.6.0.0
#
DISCID=2b0ead14
DTITLE=Various Artist - 100 Country Hits
DYEAR=1900
DGENRE=Country
TTITLE0=Roy Orbison - I Can't Stop Loving You
TTITLE1=Johnny Horton - North Yo Alaska
TTITLE2=Roger Miller - King Of The Road
TTITLE3=Johnny Cach - A Boy Named Sue
TTITLE4=Jimmy Dean - Big Bad John
TTITLE5=Byrds - You Ain't Going Nowhere
TTITLE6=Tammy Wynette - D-I-V-O-R-C-E
TTITLE7=Kris Kristofferson - Why Me
TTITLE8=Ray Price - For The Good Times
TTITLE9=John Denver - Annie's Song
TTITLE10=Janie Frickie - What Are You Doing Tonight
TTITLE11=Willie Nelson - Let It Be Me
TTITLE12=Merle Haggard - This Song Is For You
TTITLE13=Sweethearts Of The Rodeo - So Sad (To Watch Good Love Go Bad)
TTITLE14=Ricky Van Shelton - I've Cried My Last Tear For You
TTITLE15=Rosanne Cach - Seven Year Ache
TTITLE16=Rick Trevino - Walk Out Backwards
TTITLE17=Joy White - Little Tears
TTITLE18=Rodney Crowell - I Couldn't Leave You If I Tried
TTITLE19=Dolly Parton With Vince Gill - I Will Always Love You
EXTD=
EXTT0=
EXTT1=
EXTT2=
EXTT3=
EXTT4=
EXTT5=
EXTT6=
EXTT7=
EXTT8=
EXTT9=
EXTT10=
EXTT11=
EXTT12=
EXTT13=
EXTT14=
EXTT15=
EXTT16=
EXTT17=
EXTT18=
EXTT19=
PLAYORDER=
